<?xml version="1.0" standalone="no"?>
<!DOCTYPE svg PUBLIC "-//W3C//DTD SVG 20010904//EN"
 "http://www.w3.org/TR/2001/REC-SVG-20010904/DTD/svg10.dtd">
<svg version="1.0" xmlns="http://www.w3.org/2000/svg"
 width="512.000000pt" height="512.000000pt" viewBox="0 0 512.000000 512.000000"
 preserveAspectRatio="xMidYMid meet">
<metadata>
Created by potrace 1.11, written by Peter Selinger 2001-2013
</metadata>
<g transform="translate(0.000000,512.000000) scale(0.100000,-0.100000)"
fill="#000000" stroke="none">
<path d="M2310 4990 c-518 -61 -954 -248 -1340 -575 -41 -35 -246 -240 -275
-275 -253 -310 -424 -649 -510 -1014 -24 -103 -33 -152 -41 -218 -2 -21 -6
-50 -10 -65 -13 -59 -12 -448 2 -553 21 -158 24 -182 28 -189 3 -4 7 -26 11
-51 4 -25 8 -47 10 -51 2 -3 7 -20 10 -38 3 -18 19 -75 36 -126 87 -272 215
-519 388 -750 90 -118 303 -336 416 -424 44 -34 88 -69 97 -76 73 -59 285
-180 438 -249 79 -36 313 -120 363 -130 12 -3 76 -16 142 -30 66 -14 152 -28
190 -31 39 -4 81 -8 95 -11 27 -5 334 -5 390 0 50 4 161 18 185 22 11 2 47 9
80 15 550 97 1102 432 1451 879 56 71 154 208 154 214 0 2 17 33 39 68 56 92
115 213 162 330 39 98 103 305 114 370 3 17 7 34 9 37 2 3 7 26 10 51 3 25 8
54 10 66 4 20 10 69 21 168 12 111 6 426 -10 516 -2 14 -7 43 -10 65 -3 23 -7
52 -10 65 -19 97 -30 146 -51 220 -14 47 -27 92 -29 100 -7 32 -77 206 -111
279 -59 126 -210 380 -244 411 -3 3 -27 32 -52 65 -372 481 -953 816 -1563
901 -27 3 -59 9 -70 11 -35 9 -457 11 -525 3z"/>
</g>
</svg>
